<?xml version="1.0" encoding="UTF-8"?>
<svg id="Capa_1" data-name="Capa 1" xmlns="http://www.w3.org/2000/svg" viewBox="0 0 1607.59 1305">
  <defs>
    <style>
      .cls-1 {
        fill: #ed1e79;
        stroke: #662d91;
        stroke-miterlimit: 10;
        stroke-width: 5px;
      }
    </style>
  </defs>
  <path class="cls-1" d="m1288.12,895.39c86.9-210.76,54.96-451.27-85.72-633.6C1075.28,97.02,880.92,2.5,669.15,2.5c-106.78,0-213.07,25.38-307.41,73.39l-47.45,24.18c31.3,38.98,74.88,93.34,127.05,158.6-17.54,9.7-34.47,20.47-50.6,32.33-15.55,11.39-30.31,23.73-44.25,36.88-55.09-71.42-90.63-117.49-92.54-119.95l-31.48-40.43-35.83,36.82c-225.25,231.46-246.21,584.26-49.85,838.86,127.16,164.78,321.54,259.3,533.29,259.3,106.7,0,212.93-25.35,307.23-73.27l46.3-23.55-31.44-40.65c-2.67-3.46-38.21-49.52-92.37-119.75,16.87-9.41,33.15-19.85,48.72-31.27,19.08-13.99,36.85-29.51,53.43-46.08,85.88,110.19,169.45,218.42,244.43,317.13l13.27,17.46h342.84l-314.38-407.11Zm-228.94,2.89c105.12-157.82,99.54-364.37-18.76-517.7-88.48-114.68-223.77-180.46-371.16-180.46-27.14,0-53.93,2.39-80.27,6.93l63.92,79.76c5.44-.24,10.87-.47,16.34-.47,119.34,0,228.86,53.25,300.49,146.07,89.08,115.47,99.18,268.22,31.65,391.79-7.88,16.97-39.22,58.83-52.89,73.29-.27.3-.6.54-.91.8.05.07.1.14.16.21-15.86,17.02-33.4,32.65-52.42,46.58-15.61,11.45-32.17,21.55-49.32,30.47-37.21-48.25-79.24-102.75-123.34-159.92-97.96-127-201.8-261.64-286.79-371.83-18.11,17.12-37.99,40.13-56.03,70.82,83.8,108.66,182.69,236.88,272.12,352.83,38.26,49.6,74.95,97.17,108.3,140.42l56.71,73.52c29.15,37.79,53.72,69.65,71.68,92.93-69.06,27.52-143.68,41.92-218.59,41.92-183.7,0-352.31-81.98-462.61-224.9-159.66-207.02-153.63-488.95,8.77-688.85,17.93,23.24,42.48,55.07,71.59,92.81-113.14,159.16-110.19,372.06,10.99,529.1,88.5,114.69,223.76,180.46,371.12,180.46,28.54,0,56.69-2.64,84.33-7.66l-60.94-79.29c-7.76.47-15.56.72-23.39.72-119.29,0-228.81-53.23-300.44-146.07-91.97-119.21-99.79-278.17-24.9-403.69,8.53-16.67,41.45-57.36,55.66-71.3,13.54-13.57,28.06-26.25,43.66-37.68,16.59-12.18,34.23-22.86,52.55-32.18,117.82,147.68,266.61,335.1,415.02,524.45,15.78-18.05,37.43-45.79,53.89-74-143.91-183.75-280.48-355.77-381.34-482.19.05-.01.11-.02.16-.03l-58.82-73.4c-30.5-38.13-55.6-69.43-73.92-92.24,68.82-27.31,143.12-41.57,217.71-41.57,183.7,0,352.31,81.98,462.58,224.91,126.6,164.1,151.65,382.56,65.35,570.17l-10.69,23.23,238.79,309.22h-120.99c-78.57-103.24-161.99-211.32-245.02-317.97Z"/>
</svg>